# xmcd
#
# Track frame offsets:
# 150
# 12002
# 32212
# 43312
# 57975
# 76162
# 89775
# 104402
# 123530
# 135525
# 150600
# 163200
#
# Disc length: 2361 seconds
#
#
# Revision: 2
# Processed by: cddbd v1.5PL3 Copyright (c) Steve Scherf et al.
# Submitted via: FreeRIP 2.60 
#
DISCID=a009370c
DTITLE=Beth and April Stevens - Sisters
DYEAR=1996
DGENRE=Country
TTITLE0=Wishful Thinking
TTITLE1=Sisters
TTITLE2=Who's Crying for You Now
TTITLE3=Tired Old Heart
TTITLE4=What About Me
TTITLE5=My Old Friend the Blues
TTITLE6=In My Time of Dying
TTITLE7=Jeanie and Tommy
TTITLE8=Blue
TTITLE9=Tomorrow Is Forever
TTITLE10=Bed of Roses
TTITLE11=When We're Gone, Long Gone
EXTD=
EXTT0=Henderson/Wilson\nHenderson/Wilson
EXTT1=Stevens/Stevens/Stevens/Stevens
EXTT2=Stevens/Stevens
EXTT3=Stevens/Stevens
EXTT4=Stevens/Stevens/Stevens
EXTT5=Earle
EXTT6=Traditional
EXTT7=Stevens/Stevens
EXTT8=Stevens/Stevens\nParton
EXTT9=
EXTT10=Elders
EXTT11=Kane/OHara
PLAYORDER=
